<svg width="38" height="36" viewBox="0 0 38 36" fill="none" xmlns="http://www.w3.org/2000/svg">
<g filter="url(#filter0_d_169_48)">
<path d="M9.33301 0H5.33301C4.98001 0 4.64099 0.132349 4.39099 0.367026C4.13999 0.601703 4 0.919918 4 1.25222V26.2838C4 26.6161 4.13999 26.9343 4.39099 27.169C4.64099 27.4037 4.98001 27.536 5.33301 27.536H9.33301V0Z" fill="#D6B1FF"/>
<path d="M12 27.536H25.333V0H12V27.536ZM18.667 22.529C18.313 22.529 17.974 22.3975 17.724 22.1629C17.474 21.9282 17.333 21.61 17.333 21.2777C17.333 20.9454 17.474 20.6271 17.724 20.3925C17.974 20.1578 18.313 20.0264 18.667 20.0264C19.02 20.0264 19.359 20.1578 19.609 20.3925C19.86 20.6271 20 20.9454 20 21.2777C20 21.61 19.86 21.9282 19.609 22.1629C19.359 22.3975 19.02 22.529 18.667 22.529ZM18.667 5.00705C19.02 5.00705 19.359 5.13848 19.609 5.37316C19.86 5.60783 20 5.92605 20 6.25835C20 6.59065 19.86 6.90887 19.609 7.14355C19.359 7.37822 19.02 7.50966 18.667 7.50966C18.313 7.50966 17.974 7.37822 17.724 7.14355C17.474 6.90887 17.333 6.59065 17.333 6.25835C17.333 5.92605 17.474 5.60783 17.724 5.37316C17.974 5.13848 18.313 5.00705 18.667 5.00705ZM18.667 12.5167C19.02 12.5167 19.359 12.6481 19.609 12.8828C19.86 13.1175 20 13.4357 20 13.768C20 14.1003 19.86 14.4185 19.609 14.6532C19.359 14.8879 19.02 15.0193 18.667 15.0193C18.313 15.0193 17.974 14.8879 17.724 14.6532C17.474 14.4185 17.333 14.1003 17.333 13.768C17.333 13.4357 17.474 13.1175 17.724 12.8828C17.974 12.6481 18.313 12.5167 18.667 12.5167Z" fill="#8C30F5"/>
<path d="M32 0H28V27.536H32C32.354 27.536 32.693 27.4037 32.943 27.169C33.193 26.9343 33.333 26.6161 33.333 26.2838V1.25222C33.333 0.919918 33.193 0.601703 32.943 0.367026C32.693 0.132349 32.354 0 32 0Z" fill="#2EC5CE"/>
</g>
<defs>
<filter id="filter0_d_169_48" x="0" y="0" width="37.333" height="35.536" filterUnits="userSpaceOnUse" color-interpolation-filters="sRGB">
<feFlood flood-opacity="0" result="BackgroundImageFix"/>
<feColorMatrix in="SourceAlpha" type="matrix" values="0 0 0 0 0 0 0 0 0 0 0 0 0 0 0 0 0 0 127 0" result="hardAlpha"/>
<feOffset dy="4"/>
<feGaussianBlur stdDeviation="2"/>
<feComposite in2="hardAlpha" operator="out"/>
<feColorMatrix type="matrix" values="0 0 0 0 0 0 0 0 0 0 0 0 0 0 0 0 0 0 0.25 0"/>
<feBlend mode="normal" in2="BackgroundImageFix" result="effect1_dropShadow_169_48"/>
<feBlend mode="normal" in="SourceGraphic" in2="effect1_dropShadow_169_48" result="shape"/>
</filter>
</defs>
</svg>
