<svg width="40" height="39" viewBox="0 0 40 39" fill="none" xmlns="http://www.w3.org/2000/svg">
<g filter="url(#filter0_d_169_31)">
<path d="M28 12.5155H36L32 7.5094L28 12.5155ZM28 17.5226H36L32 22.5287L28 17.5226Z" fill="#D6B1FF"/>
<path d="M5.33301 0H13.333V30.0386H5.33301C4.98001 30.0386 4.64099 29.9072 4.39099 29.6716C4.13999 29.4369 4 29.1187 4 28.7873V1.25129C4 0.919926 4.13999 0.601717 4.39099 0.36704C4.64099 0.131425 4.98001 0 5.33301 0Z" fill="#8C30F5"/>
<path d="M16 0H24C24.354 0 24.693 0.131425 24.943 0.36704C25.193 0.601717 25.333 0.919926 25.333 1.25129V28.7873C25.333 29.1187 25.193 29.4369 24.943 29.6716C24.693 29.9072 24.354 30.0386 24 30.0386H16V0Z" fill="#2EC5CE"/>
</g>
<defs>
<filter id="filter0_d_169_31" x="0" y="0" width="40" height="38.0386" filterUnits="userSpaceOnUse" color-interpolation-filters="sRGB">
<feFlood flood-opacity="0" result="BackgroundImageFix"/>
<feColorMatrix in="SourceAlpha" type="matrix" values="0 0 0 0 0 0 0 0 0 0 0 0 0 0 0 0 0 0 127 0" result="hardAlpha"/>
<feOffset dy="4"/>
<feGaussianBlur stdDeviation="2"/>
<feComposite in2="hardAlpha" operator="out"/>
<feColorMatrix type="matrix" values="0 0 0 0 0 0 0 0 0 0 0 0 0 0 0 0 0 0 0.25 0"/>
<feBlend mode="normal" in2="BackgroundImageFix" result="effect1_dropShadow_169_31"/>
<feBlend mode="normal" in="SourceGraphic" in2="effect1_dropShadow_169_31" result="shape"/>
</filter>
</defs>
</svg>
