<svg width="54" height="66" viewBox="0 0 54 66" fill="none" xmlns="http://www.w3.org/2000/svg">
<g filter="url(#filter0_d_169_112)">
<path d="M37.3333 41.3333H16L14.6666 20H38.6666L37.3333 41.3333Z" fill="#3E2723"/>
<path d="M33.3333 40L26.6666 41.3333L19.9999 40C19.9999 40 5.33325 42.648 5.33325 57.3333H47.9999C47.9999 42.7 33.3333 40 33.3333 40Z" fill="#3F51B5"/>
<path d="M26.6667 48L20 40V32H33.3333V40L26.6667 48Z" fill="#FF9800"/>
<path d="M34.6666 40.3387V52H18.6666V40.336C17.4066 40.7093 15.4066 41.4333 13.3333 42.724V52V54.6667V57.3333H39.9999V54.6667V52V42.7453C37.9253 41.448 35.9253 40.7147 34.6666 40.3387Z" fill="#4CAF50"/>
<path d="M14.6666 54.6666C14.6666 53.9293 15.2626 53.3333 16 53.3333C16.736 53.3333 17.3333 53.9293 17.3333 54.6666C17.3333 55.404 16.736 56 16 56C15.2626 56 14.6666 55.404 14.6666 54.6666ZM37.3333 56C38.0693 56 38.6666 55.404 38.6666 54.6666C38.6666 53.9293 38.0693 53.3333 37.3333 53.3333C36.596 53.3333 36 53.9293 36 54.6666C36 55.404 36.596 56 37.3333 56Z" fill="#1B5E20"/>
<path d="M26.6667 27.9999C39.1851 27.9999 49.3333 24.7167 49.3333 20.6666C49.3333 16.6165 39.1851 13.3333 26.6667 13.3333C14.1482 13.3333 4 16.6165 4 20.6666C4 24.7167 14.1482 27.9999 26.6667 27.9999Z" fill="#CE8B05"/>
<path d="M31.9999 0C29.3333 0 29.3333 2.66667 26.6666 2.66667C23.9999 2.66667 23.9999 0 21.3333 0C18.6666 0 13.3333 8.03867 13.3333 14.6667V14.7453C17.0773 13.8613 21.6759 13.3333 26.6666 13.3333C31.6559 13.3333 36.2546 13.8613 39.9999 14.7453V14.6667C39.9999 8.03867 34.6666 0 31.9999 0Z" fill="#FBC02D"/>
<path d="M26.6666 16C20.3786 16 16.5213 17.208 14.6666 17.9987V26.6667C14.6666 33.2947 20.0373 38.6667 26.6666 38.6667C33.2946 38.6667 38.6666 33.2947 38.6666 26.6667V17.9987C36.812 17.208 32.9546 16 26.6666 16Z" fill="#FFB74D"/>
<path d="M26.6667 16C17.3333 16 13.3333 18.6667 13.3333 18.6667L8.33735 24.9747C7.97468 28.544 8.00001 31.688 8.00001 33.3333L16 41.3333V24L29.4013 16.0867C28.5427 16.0347 27.64 16 26.6667 16Z" fill="#795548"/>
<path d="M44.9961 24.9747L40.0001 18.6667C40.0001 18.6667 37.9321 17.3014 33.3361 16.5254L37.3334 21.3334V41.3334L45.3334 33.3334C45.3334 31.6881 45.3587 28.5441 44.9961 24.9747Z" fill="#795548"/>
<path d="M13.8959 10.6666C13.5439 12.0053 13.3333 13.3639 13.3333 14.6666C13.3333 14.6666 18.6666 13.3333 26.6666 13.3333C34.6666 13.3333 39.9999 14.6666 39.9999 14.6666C39.9999 13.3639 39.7879 12.0053 39.4359 10.6666C39.4359 10.6666 31.9999 9.33325 26.6666 9.33325C21.3333 9.33325 13.8959 10.6666 13.8959 10.6666Z" fill="#ED9F21"/>
<path d="M30.6667 26.6666C30.6667 25.9319 31.264 25.3333 32 25.3333C32.736 25.3333 33.3333 25.9319 33.3333 26.6666C33.3333 27.4013 32.736 27.9999 32 27.9999C31.264 27.9999 30.6667 27.4013 30.6667 26.6666ZM20 26.6666C20 27.4013 20.5973 27.9999 21.3333 27.9999C22.0693 27.9999 22.6667 27.4013 22.6667 26.6666C22.6667 25.9319 22.0693 25.3333 21.3333 25.3333C20.5973 25.3333 20 25.9319 20 26.6666Z" fill="#784719"/>
</g>
<defs>
<filter id="filter0_d_169_112" x="0" y="0" width="53.3334" height="65.3333" filterUnits="userSpaceOnUse" color-interpolation-filters="sRGB">
<feFlood flood-opacity="0" result="BackgroundImageFix"/>
<feColorMatrix in="SourceAlpha" type="matrix" values="0 0 0 0 0 0 0 0 0 0 0 0 0 0 0 0 0 0 127 0" result="hardAlpha"/>
<feOffset dy="4"/>
<feGaussianBlur stdDeviation="2"/>
<feComposite in2="hardAlpha" operator="out"/>
<feColorMatrix type="matrix" values="0 0 0 0 0 0 0 0 0 0 0 0 0 0 0 0 0 0 0.25 0"/>
<feBlend mode="normal" in2="BackgroundImageFix" result="effect1_dropShadow_169_112"/>
<feBlend mode="normal" in="SourceGraphic" in2="effect1_dropShadow_169_112" result="shape"/>
</filter>
</defs>
</svg>
