<svg width="32" height="32" viewBox="0 0 32 32" fill="none" xmlns="http://www.w3.org/2000/svg">
<path opacity="0.1" fill-rule="evenodd" clip-rule="evenodd" d="M0 15.8762C0 7.10759 7.163 0 16 0C24.837 0 32 7.10759 32 15.8762C32 24.6449 24.837 31.7524 16 31.7524C7.163 31.7524 0 24.6449 0 15.8762Z" fill="white"/>
<path fill-rule="evenodd" clip-rule="evenodd" d="M16.0011 7.40918C13.6831 7.40918 13.392 7.41911 12.482 7.45979C11.574 7.50147 10.954 7.64433 10.411 7.85369C9.85004 8.06999 9.37405 8.35873 8.89905 8.83004C8.42505 9.30034 8.13304 9.77264 7.91504 10.3293C7.70304 10.868 7.55905 11.4832 7.51805 12.3841C7.47705 13.2871 7.46704 13.5758 7.46704 15.8757C7.46704 18.1757 7.47705 18.4624 7.51805 19.3664C7.56005 20.2673 7.70404 20.8825 7.91504 21.4212C8.13304 21.9779 8.42405 22.4502 8.89905 22.9205C9.37305 23.3918 9.84905 23.6815 10.41 23.8978C10.953 24.1071 11.573 24.25 12.481 24.2917C13.392 24.3324 13.682 24.3423 16 24.3423C18.317 24.3423 18.6071 24.3324 19.5181 24.2917C20.4261 24.25 21.047 24.1071 21.59 23.8978C22.151 23.6815 22.6261 23.3918 23.1001 22.9205C23.5751 22.4502 23.8671 21.9779 24.0851 21.4212C24.2951 20.8825 24.439 20.2673 24.482 19.3664C24.523 18.4634 24.5331 18.1757 24.5331 15.8757C24.5331 13.5758 24.523 13.2881 24.482 12.3841C24.439 11.4832 24.2951 10.868 24.0851 10.3293C23.8671 9.77264 23.5751 9.30034 23.1001 8.83004C22.6261 8.35873 22.1511 8.069 21.5891 7.85369C21.0451 7.64433 20.4251 7.50147 19.5161 7.45979C18.6061 7.41911 18.316 7.40918 15.998 7.40918H16.0011ZM15.235 8.93421C15.462 8.93421 15.7161 8.93421 16.0011 8.93421C18.2791 8.93421 18.5491 8.94314 19.4491 8.98283C20.2811 9.02053 20.7331 9.15846 21.0331 9.27455C21.4321 9.42834 21.7151 9.6119 22.0141 9.90758C22.3131 10.2042 22.498 10.487 22.653 10.8819C22.769 11.1796 22.909 11.6281 22.946 12.4536C22.987 13.3456 22.996 13.6145 22.996 15.8738C22.996 18.133 22.987 18.4019 22.946 19.2939C22.908 20.1194 22.769 20.5679 22.653 20.8656C22.498 21.2605 22.3131 21.5423 22.0141 21.838C21.7151 22.1346 21.4321 22.3182 21.0331 22.472C20.7331 22.5881 20.2811 22.726 19.4491 22.7637C18.5491 22.8044 18.2791 22.8123 16.0011 22.8123C13.7221 22.8123 13.452 22.8044 12.553 22.7637C11.721 22.725 11.269 22.5871 10.968 22.471C10.57 22.3182 10.285 22.1346 9.98705 21.838C9.68805 21.5423 9.50305 21.2605 9.34805 20.8646C9.23105 20.5669 9.09205 20.1184 9.05405 19.2929C9.01305 18.4009 9.00505 18.133 9.00505 15.8718C9.00505 13.6105 9.01305 13.3436 9.05405 12.4516C9.09205 11.6261 9.23105 11.1776 9.34805 10.879C9.50305 10.4841 9.68805 10.2023 9.98705 9.90559C10.285 9.60892 10.57 9.42536 10.968 9.27156C11.269 9.15547 11.721 9.01757 12.553 8.97986C13.34 8.94513 13.645 8.93422 15.235 8.93223V8.93421ZM20.556 10.3402C19.991 10.3402 19.532 10.7946 19.532 11.3562C19.532 11.9168 19.991 12.3722 20.556 12.3722C21.121 12.3722 21.58 11.9168 21.58 11.3562C21.58 10.7956 21.121 10.3402 20.556 10.3402ZM16.0011 11.5279C13.5811 11.5279 11.619 13.4746 11.619 15.8757C11.619 18.2769 13.5811 20.2226 16.0011 20.2226C18.4211 20.2226 20.382 18.2769 20.382 15.8757C20.382 13.4746 18.4211 11.5279 16.0011 11.5279ZM16.0011 13.0529C17.5721 13.0529 18.845 14.317 18.845 15.8757C18.845 17.4345 17.5721 18.6976 16.0011 18.6976C14.4301 18.6976 13.1561 17.4345 13.1561 15.8757C13.1561 14.317 14.4301 13.0529 16.0011 13.0529Z" fill="white"/>
</svg>
