<svg width="68" height="61" viewBox="0 0 68 61" fill="none" xmlns="http://www.w3.org/2000/svg">
<g filter="url(#filter0_d_169_79)">
<path d="M52 27.75C55.7279 27.75 58.75 24.7279 58.75 21C58.75 17.2721 55.7279 14.25 52 14.25C48.2721 14.25 45.25 17.2721 45.25 21C45.25 24.7279 48.2721 27.75 52 27.75Z" fill="#DFF0FE"/>
<path d="M52 15C55.309 15 58 17.691 58 21C58 24.309 55.309 27 52 27C48.691 27 46 24.309 46 21C46 17.691 48.691 15 52 15ZM52 13.5C47.8585 13.5 44.5 16.8585 44.5 21C44.5 25.1415 47.8585 28.5 52 28.5C56.1415 28.5 59.5 25.1415 59.5 21C59.5 16.8585 56.1415 13.5 52 13.5Z" fill="#4788C7"/>
<path d="M40.75 44.25V43.5C40.75 37.296 45.796 32.25 52 32.25C58.204 32.25 63.25 37.296 63.25 43.5V44.25H40.75Z" fill="#98CCFD"/>
<path d="M52 33C57.79 33 62.5 37.71 62.5 43.5H41.5C41.5 37.71 46.21 33 52 33ZM52 31.5C45.373 31.5 40 36.873 40 43.5V45H64V43.5C64 36.873 58.627 31.5 52 31.5Z" fill="#4788C7"/>
<path d="M16 27.75C19.7279 27.75 22.75 24.7279 22.75 21C22.75 17.2721 19.7279 14.25 16 14.25C12.2721 14.25 9.25 17.2721 9.25 21C9.25 24.7279 12.2721 27.75 16 27.75Z" fill="#DFF0FE"/>
<path d="M16 15C19.309 15 22 17.691 22 21C22 24.309 19.309 27 16 27C12.691 27 10 24.309 10 21C10 17.691 12.691 15 16 15ZM16 13.5C11.8585 13.5 8.5 16.8585 8.5 21C8.5 25.1415 11.8585 28.5 16 28.5C20.1415 28.5 23.5 25.1415 23.5 21C23.5 16.8585 20.1415 13.5 16 13.5Z" fill="#4788C7"/>
<path d="M25.75 12.75C29.0637 12.75 31.75 10.0637 31.75 6.75C31.75 3.43629 29.0637 0.75 25.75 0.75C22.4363 0.75 19.75 3.43629 19.75 6.75C19.75 10.0637 22.4363 12.75 25.75 12.75Z" fill="#DFF0FE"/>
<path d="M25.75 1.5C28.645 1.5 31 3.855 31 6.75C31 9.645 28.645 12 25.75 12C22.855 12 20.5 9.645 20.5 6.75C20.5 3.855 22.855 1.5 25.75 1.5ZM25.75 0C22.0225 0 19 3.0225 19 6.75C19 10.4775 22.0225 13.5 25.75 13.5C29.4775 13.5 32.5 10.4775 32.5 6.75C32.5 3.0225 29.4775 0 25.75 0Z" fill="#4788C7"/>
<path d="M42.25 12.75C45.5637 12.75 48.25 10.0637 48.25 6.75C48.25 3.43629 45.5637 0.75 42.25 0.75C38.9363 0.75 36.25 3.43629 36.25 6.75C36.25 10.0637 38.9363 12.75 42.25 12.75Z" fill="#DFF0FE"/>
<path d="M42.25 1.5C45.145 1.5 47.5 3.855 47.5 6.75C47.5 9.645 45.145 12 42.25 12C39.355 12 37 9.645 37 6.75C37 3.855 39.355 1.5 42.25 1.5ZM42.25 0C38.5225 0 35.5 3.0225 35.5 6.75C35.5 10.4775 38.5225 13.5 42.25 13.5C45.9775 13.5 49 10.4775 49 6.75C49 3.0225 45.9775 0 42.25 0Z" fill="#4788C7"/>
<path d="M4.75 44.25V43.5C4.75 37.296 9.796 32.25 16 32.25C22.204 32.25 27.25 37.296 27.25 43.5V44.25H4.75Z" fill="#98CCFD"/>
<path d="M16 33C21.79 33 26.5 37.71 26.5 43.5H5.5C5.5 37.71 10.21 33 16 33ZM16 31.5C9.373 31.5 4 36.873 4 43.5V45H28V43.5C28 36.873 22.627 31.5 16 31.5Z" fill="#4788C7"/>
<path d="M34 35.25C37.7279 35.25 40.75 32.2279 40.75 28.5C40.75 24.7721 37.7279 21.75 34 21.75C30.2721 21.75 27.25 24.7721 27.25 28.5C27.25 32.2279 30.2721 35.25 34 35.25Z" fill="#DFF0FE"/>
<path d="M34 22.5C37.309 22.5 40 25.191 40 28.5C40 31.809 37.309 34.5 34 34.5C30.691 34.5 28 31.809 28 28.5C28 25.191 30.691 22.5 34 22.5ZM34 21C29.8585 21 26.5 24.3585 26.5 28.5C26.5 32.6415 29.8585 36 34 36C38.1415 36 41.5 32.6415 41.5 28.5C41.5 24.3585 38.1415 21 34 21Z" fill="#4788C7"/>
<path d="M22.75 51.75V51C22.75 44.796 27.796 39.75 34 39.75C40.204 39.75 45.25 44.796 45.25 51V51.75H22.75Z" fill="#B6DCFE"/>
<path d="M34 40.5C39.79 40.5 44.5 45.21 44.5 51H23.5C23.5 45.21 28.21 40.5 34 40.5ZM34 39C27.373 39 22 44.373 22 51V52.5H46V51C46 44.373 40.627 39 34 39Z" fill="#4788C7"/>
</g>
<defs>
<filter id="filter0_d_169_79" x="0" y="0" width="68" height="60.5" filterUnits="userSpaceOnUse" color-interpolation-filters="sRGB">
<feFlood flood-opacity="0" result="BackgroundImageFix"/>
<feColorMatrix in="SourceAlpha" type="matrix" values="0 0 0 0 0 0 0 0 0 0 0 0 0 0 0 0 0 0 127 0" result="hardAlpha"/>
<feOffset dy="4"/>
<feGaussianBlur stdDeviation="2"/>
<feComposite in2="hardAlpha" operator="out"/>
<feColorMatrix type="matrix" values="0 0 0 0 0 0 0 0 0 0 0 0 0 0 0 0 0 0 0.25 0"/>
<feBlend mode="normal" in2="BackgroundImageFix" result="effect1_dropShadow_169_79"/>
<feBlend mode="normal" in="SourceGraphic" in2="effect1_dropShadow_169_79" result="shape"/>
</filter>
</defs>
</svg>
