<svg width="35" height="39" viewBox="0 0 35 39" fill="none" xmlns="http://www.w3.org/2000/svg">
<g filter="url(#filter0_d_169_44)">
<path d="M29.333 30.0384H17.333C16.98 30.0384 16.641 29.907 16.391 29.6723C16.14 29.4376 16 29.1185 16 28.7871V26.2836C16 25.9513 16.14 25.6331 16.391 25.3984C16.641 25.1637 16.98 25.0323 17.333 25.0323H29.333C29.687 25.0323 30.026 25.1637 30.276 25.3984C30.526 25.6331 30.667 25.9513 30.667 26.2836V28.7871C30.667 29.1185 30.526 29.4376 30.276 29.6723C30.026 29.907 29.687 30.0384 29.333 30.0384Z" fill="#D6B1FF"/>
<path d="M29.333 0H5.33301C4.98001 0 4.64102 0.131411 4.39102 0.367026C4.14002 0.601703 4 0.91994 4 1.2513V3.75483C4 4.08713 4.14002 4.40535 4.39102 4.64002C4.64102 4.8747 4.98001 5.00613 5.33301 5.00613H29.333C29.687 5.00613 30.026 4.8747 30.276 4.64002C30.526 4.40535 30.667 4.08713 30.667 3.75483V1.2513C30.667 0.91994 30.526 0.601703 30.276 0.367026C30.026 0.131411 29.687 0 29.333 0Z" fill="#2EC5CE"/>
<path d="M29.333 7.50952H5.33301C4.98001 7.50952 4.64102 7.64093 4.39102 7.87655C4.14002 8.11122 4 8.42946 4 8.76083V21.2775C4 21.6089 4.14002 21.9271 4.39102 22.1618C4.64102 22.3974 4.98001 22.5288 5.33301 22.5288H29.333C29.687 22.5288 30.026 22.3974 30.276 22.1618C30.526 21.9271 30.667 21.6089 30.667 21.2775V8.76083C30.667 8.42946 30.526 8.11122 30.276 7.87655C30.026 7.64093 29.687 7.50952 29.333 7.50952Z" fill="#8C30F5"/>
</g>
<defs>
<filter id="filter0_d_169_44" x="0" y="0" width="34.667" height="38.0384" filterUnits="userSpaceOnUse" color-interpolation-filters="sRGB">
<feFlood flood-opacity="0" result="BackgroundImageFix"/>
<feColorMatrix in="SourceAlpha" type="matrix" values="0 0 0 0 0 0 0 0 0 0 0 0 0 0 0 0 0 0 127 0" result="hardAlpha"/>
<feOffset dy="4"/>
<feGaussianBlur stdDeviation="2"/>
<feComposite in2="hardAlpha" operator="out"/>
<feColorMatrix type="matrix" values="0 0 0 0 0 0 0 0 0 0 0 0 0 0 0 0 0 0 0.25 0"/>
<feBlend mode="normal" in2="BackgroundImageFix" result="effect1_dropShadow_169_44"/>
<feBlend mode="normal" in="SourceGraphic" in2="effect1_dropShadow_169_44" result="shape"/>
</filter>
</defs>
</svg>
