<svg width="40" height="39" viewBox="0 0 40 39" fill="none" xmlns="http://www.w3.org/2000/svg">
<g filter="url(#filter0_d_169_53)">
<path d="M18.7598 0.165147L4.32991 6.49202C4.22991 6.53426 4.14992 6.60185 4.08992 6.68634C4.03992 6.77082 3.99984 6.86939 4.00984 6.97077C4.00984 7.07121 4.03992 7.16978 4.08992 7.25426C4.14992 7.33875 4.23991 7.40633 4.32991 7.44858L18.8698 13.7285C19.2998 13.9144 19.7999 13.9144 20.2299 13.7285L34.7699 7.44858C34.8699 7.40633 34.9498 7.33969 35.0098 7.25521C35.0598 7.16979 35.0999 7.07121 35.0999 6.97077C35.0999 6.87033 35.0698 6.77176 35.0098 6.68634C34.9498 6.60185 34.8699 6.53426 34.7699 6.49202L20.3399 0.165147C20.0899 0.0562566 19.8199 -6.10352e-05 19.5499 -6.10352e-05C19.2799 -6.10352e-05 19.0098 0.0562566 18.7598 0.165147Z" fill="#8C30F5"/>
<path opacity="0.64" d="M34.77 14.6136L31.79 13.3069C31.58 13.213 31.3401 13.1642 31.1101 13.1633C30.8701 13.1633 30.6401 13.2102 30.4301 13.3031L20.2301 17.7085C20.0101 17.8005 19.78 17.8474 19.55 17.8474C19.32 17.8474 19.09 17.8005 18.87 17.7085L8.67004 13.3031C8.46004 13.2111 8.22999 13.1632 7.98999 13.1642C7.75999 13.1642 7.52006 13.213 7.31006 13.3069L4.33008 14.6136C4.23008 14.6558 4.15009 14.7234 4.09009 14.8079C4.03009 14.8933 4 14.9919 4 15.0923C4 15.1927 4.04009 15.2913 4.09009 15.3767C4.15009 15.4612 4.23008 15.5279 4.33008 15.5701L18.87 21.8491C19.08 21.9411 19.32 21.989 19.55 21.989C19.78 21.989 20.0201 21.9411 20.2301 21.8491L34.77 15.5701C34.87 15.5279 34.95 15.4612 35.01 15.3767C35.06 15.2913 35.1001 15.1927 35.1001 15.0923C35.1001 14.9919 35.07 14.8933 35.01 14.8079C34.95 14.7234 34.87 14.6558 34.77 14.6136Z" fill="#D6B1FF"/>
<path d="M34.7699 22.6642L31.7899 21.3575C31.5799 21.2636 31.3399 21.2148 31.1099 21.2138C30.8699 21.2138 30.6399 21.2608 30.4299 21.3537L20.2299 25.7581C20.0099 25.8501 19.7799 25.8971 19.5499 25.8971C19.3199 25.8971 19.0798 25.8501 18.8698 25.7581L8.66988 21.3528C8.45988 21.2598 8.22982 21.2129 7.98982 21.2129C7.75982 21.2138 7.51989 21.2627 7.30989 21.3565L4.32991 22.6642C4.22991 22.7064 4.14992 22.774 4.08992 22.8585C4.03992 22.9429 3.99984 23.0415 4.00984 23.142C4.00984 23.2424 4.03992 23.3409 4.08992 23.4254C4.14992 23.5099 4.22991 23.5775 4.32991 23.6188L18.8698 29.8997C19.2998 30.0846 19.7999 30.0846 20.2299 29.8997L34.7699 23.6188C34.8599 23.5775 34.9498 23.5099 34.9998 23.4254C35.0598 23.3409 35.0899 23.2424 35.0899 23.142C35.0899 23.0415 35.0598 22.9429 35.0098 22.8585C34.9498 22.774 34.8699 22.7064 34.7699 22.6642Z" fill="#2EC5CE"/>
</g>
<defs>
<filter id="filter0_d_169_53" x="0" y="-6.10352e-05" width="39.1001" height="38.0385" filterUnits="userSpaceOnUse" color-interpolation-filters="sRGB">
<feFlood flood-opacity="0" result="BackgroundImageFix"/>
<feColorMatrix in="SourceAlpha" type="matrix" values="0 0 0 0 0 0 0 0 0 0 0 0 0 0 0 0 0 0 127 0" result="hardAlpha"/>
<feOffset dy="4"/>
<feGaussianBlur stdDeviation="2"/>
<feComposite in2="hardAlpha" operator="out"/>
<feColorMatrix type="matrix" values="0 0 0 0 0 0 0 0 0 0 0 0 0 0 0 0 0 0 0.25 0"/>
<feBlend mode="normal" in2="BackgroundImageFix" result="effect1_dropShadow_169_53"/>
<feBlend mode="normal" in="SourceGraphic" in2="effect1_dropShadow_169_53" result="shape"/>
</filter>
</defs>
</svg>
