<svg width="32" height="32" viewBox="0 0 32 32" fill="none" xmlns="http://www.w3.org/2000/svg">
<path opacity="0.1" fill-rule="evenodd" clip-rule="evenodd" d="M0 16.0833C0 7.31462 7.163 0.207031 16 0.207031C24.837 0.207031 32 7.31462 32 16.0833C32 24.8519 24.837 31.9595 16 31.9595C7.163 31.9595 0 24.8519 0 16.0833Z" fill="white"/>
<path fill-rule="evenodd" clip-rule="evenodd" d="M15.521 13.1113L15.554 13.661L14.995 13.5936C12.958 13.3356 11.178 12.4614 9.668 10.9929L8.92899 10.2636L8.73901 10.8024C8.33601 12.002 8.59301 13.2681 9.43301 14.1205C9.88001 14.5918 9.77899 14.6582 9.00699 14.3784C8.73899 14.2881 8.50399 14.2217 8.48099 14.2554C8.40299 14.3338 8.672 15.3538 8.884 15.7576C9.175 16.3183 9.76799 16.867 10.417 17.1924L10.966 17.4504L10.317 17.4613C9.68999 17.4613 9.66798 17.4722 9.73498 17.7084C9.95898 18.4367 10.843 19.2106 11.828 19.547L12.521 19.7821L11.917 20.1404C11.022 20.6563 9.97 20.948 8.918 20.9699C8.414 20.9818 8 21.0264 8 21.0602C8 21.1723 9.365 21.8004 10.16 22.0464C12.544 22.7757 15.375 22.4612 17.502 21.2169C19.013 20.3309 20.523 18.5716 21.229 16.867C21.609 15.9591 21.99 14.3 21.99 13.5043C21.99 12.9883 22.023 12.9208 22.65 12.3047C23.019 11.9455 23.366 11.5535 23.433 11.4414C23.545 11.2281 23.534 11.2281 22.963 11.4186C22.012 11.755 21.878 11.7103 22.348 11.2053C22.695 10.8471 23.109 10.1962 23.109 10.0056C23.109 9.9719 22.941 10.0285 22.751 10.1297C22.549 10.2418 22.102 10.4095 21.766 10.5107L21.161 10.7012L20.613 10.3311C20.311 10.1297 19.886 9.90542 19.662 9.83795C19.091 9.68117 18.218 9.70302 17.703 9.88261C16.304 10.3877 15.42 11.6875 15.521 13.1113Z" fill="white"/>
</svg>
