<svg width="58" height="54" viewBox="0 0 58 54" fill="none" xmlns="http://www.w3.org/2000/svg">
<path d="M53 17.7659V52.7559H5V17.7659L5.12 17.7059L29 6.75586L52.88 17.7059L53 17.7659Z" fill="#FAEFDE"/>
<path d="M13 26.7559H45C45.5304 26.7559 46.0391 26.9666 46.4142 27.3416C46.7893 27.7167 47 28.2254 47 28.7559V52.7559H11V28.7559C11 28.2254 11.2107 27.7167 11.5858 27.3416C11.9609 26.9666 12.4696 26.7559 13 26.7559Z" fill="#F9DD8F"/>
<path d="M13 26.7559H45C45.5304 26.7559 46.0391 26.9666 46.4142 27.3416C46.7893 27.7167 47 28.2254 47 28.7559V34.7559H11V28.7559C11 28.2254 11.2107 27.7167 11.5858 27.3416C11.9609 26.9666 12.4696 26.7559 13 26.7559Z" fill="#F9DD8F"/>
<path d="M47 46.7559H11V52.7559H47V46.7559Z" fill="#F6D397"/>
<path d="M29.45 6.97582L55.55 20.0358C55.703 20.1129 55.8732 20.1494 56.0444 20.1418C56.2155 20.1342 56.3818 20.0828 56.5274 19.9924C56.6729 19.9021 56.7929 19.7759 56.8756 19.6259C56.9584 19.4759 57.0012 19.3071 57 19.1358V15.9958C56.9998 15.6237 56.8958 15.2591 56.6997 14.9429C56.5036 14.6266 56.2232 14.3714 55.89 14.2058L29.89 1.20582C29.6121 1.06678 29.3057 0.994385 28.995 0.994385C28.6843 0.994385 28.3779 1.06678 28.1 1.20582L2.1 14.2058C1.76866 14.3728 1.49029 14.6286 1.29603 14.9447C1.10177 15.2609 0.999273 15.6248 1 15.9958V19.1458C1.00052 19.3163 1.0446 19.4838 1.12807 19.6324C1.21153 19.7811 1.33161 19.9059 1.47689 19.9951C1.62217 20.0842 1.78783 20.1348 1.95815 20.1419C2.12846 20.149 2.29777 20.1125 2.45 20.0358L28.55 6.97582C28.6896 6.90548 28.8437 6.86885 29 6.86885C29.1563 6.86885 29.3104 6.90548 29.45 6.97582Z" fill="#ED7899"/>
<path d="M53 17.7558V20.5058C52.9998 20.8462 52.9128 21.1809 52.7471 21.4783C52.5814 21.7756 52.3425 22.0258 52.0531 22.205C51.7637 22.3843 51.4334 22.4867 51.0933 22.5026C50.7533 22.5185 50.4148 22.4473 50.11 22.2958L29.45 11.9758C29.3104 11.9055 29.1563 11.8688 29 11.8688C28.8437 11.8688 28.6896 11.9055 28.55 11.9758L7.89 22.3058C7.58516 22.4573 7.2467 22.5285 6.90666 22.5126C6.56663 22.4967 6.23628 22.3943 5.94689 22.215C5.65749 22.0358 5.41864 21.7856 5.25294 21.4883C5.08724 21.1909 5.00018 20.8562 5 20.5158V17.7558H5.12L28.12 6.25581C28.3966 6.11839 28.7012 6.04688 29.01 6.04688C29.3188 6.04688 29.6234 6.11839 29.9 6.25581L52.9 17.7558H53Z" fill="#EFD8BE"/>
<path d="M43 39.7559H39C38.7348 39.7559 38.4804 39.8612 38.2929 40.0488C38.1054 40.2363 38 40.4906 38 40.7559C38 41.0211 38.1054 41.2754 38.2929 41.463C38.4804 41.6505 38.7348 41.7559 39 41.7559H43C43.2652 41.7559 43.5196 41.6505 43.7071 41.463C43.8946 41.2754 44 41.0211 44 40.7559C44 40.4906 43.8946 40.2363 43.7071 40.0488C43.5196 39.8612 43.2652 39.7559 43 39.7559Z" fill="#8D6C9F"/>
<path d="M55.11 20.9259C55.4148 21.0774 55.7533 21.1485 56.0933 21.1327C56.4334 21.1168 56.7637 21.0144 57.0531 20.8351C57.3425 20.6559 57.5814 20.4057 57.7471 20.1084C57.9128 19.811 57.9998 19.4763 58 19.1359V15.9959C57.9992 15.4391 57.8436 14.8936 57.5504 14.4203C57.2572 13.947 56.8381 13.5646 56.34 13.3159L30.34 0.315898C29.9239 0.108147 29.4651 0 29 0C28.5349 0 28.0761 0.108147 27.66 0.315898L1.66 13.3159C1.16187 13.5646 0.742777 13.947 0.449607 14.4203C0.156437 14.8936 0.000761401 15.4391 0 15.9959V19.1459C0.000180584 19.4863 0.0872422 19.821 0.252942 20.1184C0.418641 20.4157 0.657494 20.6659 0.946885 20.8451C1.23628 21.0244 1.56663 21.1268 1.90666 21.1427C2.2467 21.1585 2.58516 21.0874 2.89 20.9359L4 20.3759V51.7559H1C0.734784 51.7559 0.48043 51.8613 0.292893 52.0488C0.105357 52.2363 0 52.4907 0 52.7559C0 53.0211 0.105357 53.2755 0.292893 53.463C0.48043 53.6505 0.734784 53.7559 1 53.7559H57C57.2652 53.7559 57.5196 53.6505 57.7071 53.463C57.8946 53.2755 58 53.0211 58 52.7559C58 52.4907 57.8946 52.2363 57.7071 52.0488C57.5196 51.8613 57.2652 51.7559 57 51.7559H54V20.3759L55.11 20.9259ZM2 19.1359V15.9959C2.00056 15.8112 2.05224 15.6303 2.14932 15.4732C2.2464 15.3161 2.38509 15.189 2.55 15.1059L28.55 2.1059C28.6896 2.03556 28.8437 1.99893 29 1.99893C29.1563 1.99893 29.3104 2.03556 29.45 2.1059L55.45 15.1059C55.6149 15.189 55.7536 15.3161 55.8507 15.4732C55.9478 15.6303 55.9994 15.8112 56 15.9959V19.1459L29.89 6.0859C29.6121 5.94686 29.3057 5.87447 28.995 5.87447C28.6843 5.87447 28.3779 5.94686 28.1 6.0859L2 19.1359ZM12 51.7559V47.7559H46V51.7559H12ZM12 41.7559H35C35.2652 41.7559 35.5196 41.6505 35.7071 41.463C35.8946 41.2755 36 41.0211 36 40.7559C36 40.4907 35.8946 40.2363 35.7071 40.0488C35.5196 39.8613 35.2652 39.7559 35 39.7559H12V35.7559H46V45.7559H12V41.7559ZM46 33.7559H12V28.7559C12 28.4907 12.1054 28.2363 12.2929 28.0488C12.4804 27.8613 12.7348 27.7559 13 27.7559H45C45.2652 27.7559 45.5196 27.8613 45.7071 28.0488C45.8946 28.2363 46 28.4907 46 28.7559V33.7559ZM52 51.7559H48V28.7559C48 27.9602 47.6839 27.1972 47.1213 26.6346C46.5587 26.072 45.7956 25.7559 45 25.7559H13C12.2044 25.7559 11.4413 26.072 10.8787 26.6346C10.3161 27.1972 10 27.9602 10 28.7559V51.7559H6V19.3759L29 7.8759L52 19.3759V51.7559Z" fill="#8D6C9F"/>
<path d="M14 19.7559C13.7348 19.7559 13.4804 19.8612 13.2929 20.0488C13.1054 20.2363 13 20.4906 13 20.7559V22.7559C13 23.0211 13.1054 23.2754 13.2929 23.463C13.4804 23.6505 13.7348 23.7559 14 23.7559C14.2652 23.7559 14.5196 23.6505 14.7071 23.463C14.8946 23.2754 15 23.0211 15 22.7559V20.7559C15 20.4906 14.8946 20.2363 14.7071 20.0488C14.5196 19.8612 14.2652 19.7559 14 19.7559Z" fill="#8D6C9F"/>
<path d="M9 19.7559C8.73478 19.7559 8.48043 19.8612 8.29289 20.0488C8.10536 20.2363 8 20.4906 8 20.7559V22.7559C8 23.0211 8.10536 23.2754 8.29289 23.463C8.48043 23.6505 8.73478 23.7559 9 23.7559C9.26522 23.7559 9.51957 23.6505 9.70711 23.463C9.89464 23.2754 10 23.0211 10 22.7559V20.7559C10 20.4906 9.89464 20.2363 9.70711 20.0488C9.51957 19.8612 9.26522 19.7559 9 19.7559Z" fill="#8D6C9F"/>
<path d="M24 19.7559C23.7348 19.7559 23.4804 19.8612 23.2929 20.0488C23.1054 20.2363 23 20.4906 23 20.7559V22.7559C23 23.0211 23.1054 23.2754 23.2929 23.463C23.4804 23.6505 23.7348 23.7559 24 23.7559C24.2652 23.7559 24.5196 23.6505 24.7071 23.463C24.8946 23.2754 25 23.0211 25 22.7559V20.7559C25 20.4906 24.8946 20.2363 24.7071 20.0488C24.5196 19.8612 24.2652 19.7559 24 19.7559Z" fill="#8D6C9F"/>
<path d="M28 20.7559V22.7559C28 23.0211 28.1054 23.2754 28.2929 23.463C28.4804 23.6505 28.7348 23.7559 29 23.7559C29.2652 23.7559 29.5196 23.6505 29.7071 23.463C29.8946 23.2754 30 23.0211 30 22.7559V20.7559C30 20.4906 29.8946 20.2363 29.7071 20.0488C29.5196 19.8612 29.2652 19.7559 29 19.7559C28.7348 19.7559 28.4804 19.8612 28.2929 20.0488C28.1054 20.2363 28 20.4906 28 20.7559Z" fill="#8D6C9F"/>
<path d="M19 19.7559C18.7348 19.7559 18.4804 19.8612 18.2929 20.0488C18.1054 20.2363 18 20.4906 18 20.7559V22.7559C18 23.0211 18.1054 23.2754 18.2929 23.463C18.4804 23.6505 18.7348 23.7559 19 23.7559C19.2652 23.7559 19.5196 23.6505 19.7071 23.463C19.8946 23.2754 20 23.0211 20 22.7559V20.7559C20 20.4906 19.8946 20.2363 19.7071 20.0488C19.5196 19.8612 19.2652 19.7559 19 19.7559Z" fill="#8D6C9F"/>
<path d="M44 23.7559C44.2652 23.7559 44.5196 23.6505 44.7071 23.463C44.8946 23.2754 45 23.0211 45 22.7559V20.7559C45 20.4906 44.8946 20.2363 44.7071 20.0488C44.5196 19.8612 44.2652 19.7559 44 19.7559C43.7348 19.7559 43.4804 19.8612 43.2929 20.0488C43.1054 20.2363 43 20.4906 43 20.7559V22.7559C43 23.0211 43.1054 23.2754 43.2929 23.463C43.4804 23.6505 43.7348 23.7559 44 23.7559Z" fill="#8D6C9F"/>
<path d="M49 23.7559C49.2652 23.7559 49.5196 23.6505 49.7071 23.463C49.8946 23.2754 50 23.0211 50 22.7559V20.7559C50 20.4906 49.8946 20.2363 49.7071 20.0488C49.5196 19.8612 49.2652 19.7559 49 19.7559C48.7348 19.7559 48.4804 19.8612 48.2929 20.0488C48.1054 20.2363 48 20.4906 48 20.7559V22.7559C48 23.0211 48.1054 23.2754 48.2929 23.463C48.4804 23.6505 48.7348 23.7559 49 23.7559Z" fill="#8D6C9F"/>
<path d="M34 23.7559C34.2652 23.7559 34.5196 23.6505 34.7071 23.463C34.8946 23.2754 35 23.0211 35 22.7559V20.7559C35 20.4906 34.8946 20.2363 34.7071 20.0488C34.5196 19.8612 34.2652 19.7559 34 19.7559C33.7348 19.7559 33.4804 19.8612 33.2929 20.0488C33.1054 20.2363 33 20.4906 33 20.7559V22.7559C33 23.0211 33.1054 23.2754 33.2929 23.463C33.4804 23.6505 33.7348 23.7559 34 23.7559Z" fill="#8D6C9F"/>
<path d="M39 23.7559C39.2652 23.7559 39.5196 23.6505 39.7071 23.463C39.8946 23.2754 40 23.0211 40 22.7559V20.7559C40 20.4906 39.8946 20.2363 39.7071 20.0488C39.5196 19.8612 39.2652 19.7559 39 19.7559C38.7348 19.7559 38.4804 19.8612 38.2929 20.0488C38.1054 20.2363 38 20.4906 38 20.7559V22.7559C38 23.0211 38.1054 23.2754 38.2929 23.463C38.4804 23.6505 38.7348 23.7559 39 23.7559Z" fill="#8D6C9F"/>
<path d="M31 29.7559H27C26.7348 29.7559 26.4804 29.8612 26.2929 30.0488C26.1054 30.2363 26 30.4906 26 30.7559C26 31.0211 26.1054 31.2754 26.2929 31.463C26.4804 31.6505 26.7348 31.7559 27 31.7559H31C31.2652 31.7559 31.5196 31.6505 31.7071 31.463C31.8946 31.2754 32 31.0211 32 30.7559C32 30.4906 31.8946 30.2363 31.7071 30.0488C31.5196 29.8612 31.2652 29.7559 31 29.7559Z" fill="#8D6C9F"/>
</svg>
