<svg width="30" height="38" viewBox="0 0 30 38" fill="none" xmlns="http://www.w3.org/2000/svg">
<path d="M15 18.75C12.9375 18.75 11.25 17.0625 11.25 15C11.25 12.9375 12.9375 11.25 15 11.25C17.0625 11.25 18.75 12.9375 18.75 15C18.75 17.0625 17.0625 18.75 15 18.75ZM26.25 15.375C26.25 8.56875 21.2812 3.75 15 3.75C8.71875 3.75 3.75 8.56875 3.75 15.375C3.75 19.7625 7.40625 25.575 15 32.5125C22.5938 25.575 26.25 19.7625 26.25 15.375ZM15 0C22.875 0 30 6.0375 30 15.375C30 21.6 24.9937 28.9687 15 37.5C5.00625 28.9687 0 21.6 0 15.375C0 6.0375 7.125 0 15 0Z" fill="#F49425"/>
</svg>
