<svg width="17" height="17" viewBox="0 0 17 17" fill="none" xmlns="http://www.w3.org/2000/svg">
<path fill-rule="evenodd" clip-rule="evenodd" d="M16.2804 0.218293C16.4804 0.419717 16.5503 0.720365 16.4603 0.990254L11.2104 15.8738C11.1104 16.1616 10.8404 16.359 10.5304 16.3709C10.2204 16.3838 9.94046 16.2092 9.81046 15.9304L6.93046 9.49372L0.450368 6.6331C0.160369 6.50907 -0.00958191 6.22827 0.000418073 5.92266C0.0104181 5.61804 0.210418 5.35213 0.500417 5.25093L15.5004 0.0416812C15.7704 -0.0525813 16.0804 0.0158769 16.2804 0.218293ZM8.39041 9.09485L10.4204 13.6105L13.9603 3.57603L8.39041 9.09485ZM12.9004 2.52426L2.78044 6.03577L7.33036 8.04208L12.9004 2.52426Z" fill="white"/>
</svg>
